<svg width="443" height="72" viewBox="0 0 443 72" fill="none" xmlns="http://www.w3.org/2000/svg">
<g clip-path="url(#clip0_326_1350)">
<path d="M362.897 70.76C362.89 70.7576 362.878 70.7502 362.873 70.7453L328.958 17.4956C328.819 17.2609 328.588 17.1264 328.32 17.1264C327.946 17.1264 327.561 17.4051 327.561 17.8696V60.2171C327.561 64.0573 327.854 67.636 331.375 69.2322L332.478 69.6282C332.746 69.7162 332.89 69.8996 332.89 70.1464C332.89 70.3933 332.741 70.6549 332.492 70.6622L319.803 70.6647C319.515 70.6647 319.281 70.4324 319.281 70.1489C319.281 69.8458 319.557 69.7113 319.796 69.6307L320.898 69.2347C324.425 67.68 324.71 64.2333 324.71 60.2196V11.7731C324.71 7.75934 324.422 4.31022 320.896 2.76044L319.793 2.26422C319.508 2.14933 319.279 2.03689 319.279 1.75089C319.279 1.46489 319.513 1.23022 319.801 1.23022H330.949L361.373 48.8211C361.512 49.0558 361.744 49.1927 362.012 49.1927C362.385 49.1927 362.77 48.914 362.77 48.4496V11.7731C362.77 7.93045 362.47 4.34933 358.856 2.76044L357.851 2.26422C357.573 2.15178 357.32 2.02711 357.32 1.75089C357.32 1.46489 357.554 1.23022 357.841 1.23022H370.428C370.716 1.23022 370.95 1.46245 370.95 1.75089C370.95 2.00023 370.767 2.10533 370.492 2.23733L370.438 2.26422C370.426 2.26911 370.414 2.274 370.404 2.27889L369.438 2.76044C365.824 4.34933 365.524 7.93045 365.524 11.7731L365.497 70.7331C365.497 70.7453 365.487 70.7551 365.475 70.7551C363.246 70.7551 365.475 70.76 362.897 70.76Z" fill="#0E100F"/>
<path d="M399.328 1.23267H382.364C382.357 1.23267 382.352 1.23511 382.344 1.23511H381.222C380.922 1.23511 380.676 1.46734 380.676 1.75089C380.676 2.03445 380.927 2.164 381.213 2.26667L382.371 2.76534C386.051 4.26134 386.356 7.884 386.356 11.778V60.222C386.356 64.0622 386.042 67.6409 382.264 69.2371L381.203 69.7358C380.886 69.8727 380.679 69.9827 380.679 70.2491C380.679 70.5253 380.915 70.7575 381.227 70.7649H396.492V70.7624H399.331C424.177 70.7698 438.318 59.6915 438.318 35.9976C438.318 13.8509 423.331 1.23022 399.328 1.23267ZM399.66 68.1078C398.877 68.0711 398.143 67.9098 397.514 67.3084C396.943 66.7633 396.614 65.9982 396.614 65.2136V6.784C396.614 5.99934 396.941 5.23667 397.514 4.68911C398.401 3.84089 399.579 3.86289 400.723 3.88978C401.601 3.91178 402.479 3.95822 403.357 4.03644C404.218 4.11222 405.079 4.21734 405.933 4.35178C406.774 4.48622 407.61 4.65 408.44 4.84555C409.257 5.03867 410.066 5.266 410.864 5.52756C411.652 5.78667 412.43 6.07756 413.193 6.40511C413.949 6.73022 414.69 7.08955 415.412 7.488C416.134 7.884 416.834 8.31422 417.512 8.78356C418.192 9.25289 418.849 9.75889 419.478 10.2991C420.114 10.8467 420.722 11.4309 421.295 12.0444C421.882 12.6751 422.436 13.3376 422.953 14.0293C423.487 14.7456 423.982 15.4911 424.438 16.2611C424.914 17.0653 425.346 17.8964 425.736 18.7471C426.148 19.6442 426.514 20.5633 426.836 21.4971C427.18 22.4896 427.472 23.4991 427.723 24.5209C427.992 25.6111 428.211 26.716 428.387 27.8258C428.575 29.0162 428.716 30.2164 428.811 31.4191C428.916 32.7147 428.972 34.0127 428.987 35.3107C428.989 35.5404 428.992 35.7727 428.992 36.0024C428.992 39.0653 428.818 42.138 428.36 45.1667C427.975 47.704 427.387 50.2169 426.489 52.6222C425.721 54.6829 424.721 56.6604 423.441 58.4498C422.27 60.0876 420.868 61.5542 419.273 62.7813C417.68 64.0084 415.907 64.9936 414.047 65.7489C412.047 66.5604 409.947 67.1153 407.823 67.482C405.457 67.8902 403.057 68.0735 400.657 68.1127C400.316 68.1151 399.984 68.1224 399.66 68.1078Z" fill="#0E100F"/>
<path d="M66.176 70.7624C65.8882 70.7624 65.6541 70.5302 65.6541 70.2467C65.6541 70.0095 65.8321 69.8287 66.1686 69.726L67.1417 69.374C67.2539 69.3324 67.349 69.2933 67.4368 69.2518C70.8048 67.614 71.0829 64.0451 71.0829 60.2171V11.7756C71.0829 8.08688 70.7878 4.35422 67.271 2.76044L66.1662 2.26422L66.0979 2.23244C65.8053 2.09066 65.6541 2.00511 65.6541 1.75089C65.6541 1.46733 65.8882 1.23511 66.176 1.23511H85.5743C85.5816 1.23755 85.5914 1.23755 85.5987 1.23755C85.8792 1.25467 86.0889 1.47467 86.0889 1.75089C86.0889 1.99289 85.9133 2.098 85.6475 2.23L85.5841 2.26178L84.4817 2.76289C80.9601 4.35422 80.665 8.08933 80.665 11.778V60.222C80.665 64.0451 80.943 67.614 84.311 69.2567C84.411 69.3055 84.5086 69.3471 84.6061 69.3813L85.5792 69.7309C85.8816 69.8482 86.0865 69.9827 86.0865 70.2491C86.0865 70.5131 85.8694 70.7429 85.6011 70.7624C85.5914 70.7624 85.5719 70.7673 85.5719 70.7673H66.176V70.7624Z" fill="#0E100F"/>
<path d="M0.459446 70.7625C0.196054 70.7551 -0.0258789 70.5229 -0.0258789 70.2467C-0.0258789 70.0878 0.0570407 69.8678 0.452129 69.7284L1.45448 69.3324C5.06637 67.7387 5.36635 64.006 5.36635 60.3222V11.7756C5.36635 7.93289 5.06637 4.34933 1.45448 2.76044L0.454569 2.26667C0.447252 2.26178 0.439936 2.25933 0.432619 2.25689C0.0570412 2.11756 -0.0234396 1.90489 -0.0234396 1.75089C-0.0234396 1.47467 0.20337 1.23511 0.461885 1.23511H19.8627C20.148 1.24245 20.3675 1.46489 20.3675 1.75089C20.3675 1.98067 20.1992 2.15912 19.8798 2.26178C19.8724 2.26423 19.8627 2.26667 19.8554 2.27155L18.7677 2.76289C15.2411 4.31267 14.9533 7.76423 14.9533 11.778V34.3598C14.9533 35.9633 16.2703 37.2687 17.8921 37.2687H37.4758C39.0952 37.2687 40.4146 35.9633 40.4146 34.3598V11.7756C40.4146 7.76178 40.1268 4.31267 36.6027 2.76044L35.5028 2.26667C35.4955 2.26422 35.4882 2.25933 35.4784 2.25689C35.198 2.164 35.0395 1.97823 35.0395 1.74845C35.0395 1.48689 35.2516 1.24978 35.5004 1.23267H54.9012C55.2036 1.24489 55.428 1.47711 55.428 1.74845C55.428 2.02223 55.1963 2.142 54.9158 2.26178L53.9062 2.76044C50.2918 4.35422 49.9918 7.93533 49.9918 11.7756V60.3198C49.9918 64.006 50.2943 67.7387 53.9037 69.33L54.8744 69.7138C54.8988 69.7236 54.9231 69.7284 54.9475 69.7309C55.2158 69.748 55.4255 69.9753 55.4255 70.2442C55.4255 70.5278 55.1914 70.76 54.9036 70.76H35.498C35.476 70.7453 35.4419 70.7331 35.4175 70.7258C35.1955 70.6647 35.0346 70.4618 35.0346 70.2442C35.0346 70.0291 35.1809 69.8409 35.4004 69.7724C35.4297 69.7627 35.4589 69.748 35.4833 69.7284L36.593 69.33C36.6637 69.3031 36.7296 69.2762 36.8003 69.2469C40.1341 67.7607 40.4073 64.3262 40.4073 60.3198V42.798C40.4073 41.1944 39.0903 39.8891 37.4685 39.8891H17.8848C16.2654 39.8891 14.946 41.1944 14.946 42.798V60.3198C14.946 63.9449 15.2289 67.6189 18.5945 69.2518C18.6969 69.3031 18.792 69.3422 18.8847 69.374L19.8578 69.7236C20.1773 69.8116 20.3578 70.0022 20.3578 70.2442C20.3578 70.5253 20.131 70.7576 19.8529 70.76H0.459446V70.7625Z" fill="#0E100F"/>
<path d="M176.718 70.7625C176.454 70.7551 176.232 70.5229 176.232 70.2467C176.232 70.0878 176.315 69.8678 176.71 69.7284L177.713 69.3324C181.325 67.7387 181.625 64.006 181.625 60.3222V11.7756C181.625 7.93289 181.325 4.34933 177.713 2.76044L176.71 2.26667C176.703 2.26178 176.696 2.25933 176.688 2.25689C176.313 2.11756 176.232 1.90489 176.232 1.75089C176.232 1.47467 176.459 1.23511 176.718 1.23511H196.119C196.404 1.24245 196.623 1.46489 196.623 1.75089C196.623 1.98067 196.455 2.15912 196.136 2.26178C196.128 2.26423 196.119 2.26667 196.111 2.27155L195.024 2.76289C191.497 4.31267 191.209 7.76423 191.209 11.778V34.3598C191.209 35.9633 192.526 37.2687 194.148 37.2687H212.756C214.376 37.2687 215.695 35.9633 215.695 34.3598V11.7756C215.695 7.76178 215.407 4.31267 211.883 2.76044L210.788 2.26667C210.781 2.26422 210.773 2.25933 210.764 2.25689C210.483 2.164 210.325 1.97823 210.325 1.74845C210.325 1.48689 210.537 1.24978 210.786 1.23267H230.186C230.489 1.24489 230.713 1.47711 230.713 1.74845C230.713 2.02223 230.482 2.142 230.201 2.26178L229.191 2.76044C225.577 4.35422 225.277 7.93533 225.277 11.7756V60.3198C225.277 64.006 225.579 67.7387 229.189 69.33L230.16 69.7138C230.184 69.7236 230.208 69.7284 230.233 69.7309C230.501 69.748 230.711 69.9753 230.711 70.2442C230.711 70.5278 230.477 70.76 230.189 70.76H210.783C210.761 70.7453 210.727 70.7331 210.703 70.7258C210.481 70.6647 210.32 70.4618 210.32 70.2442C210.32 70.0291 210.466 69.8409 210.686 69.7724C210.715 69.7627 210.744 69.748 210.769 69.7284L211.878 69.33C211.949 69.3031 212.015 69.2762 212.085 69.2469C215.419 67.7607 215.693 64.3262 215.693 60.3198V42.798C215.693 41.1944 214.376 39.8891 212.754 39.8891H194.146C192.526 39.8891 191.207 41.1944 191.207 42.798V60.3198C191.207 63.9449 191.49 67.6189 194.855 69.2518C194.958 69.3031 195.053 69.3422 195.145 69.374L196.119 69.7236C196.438 69.8116 196.619 70.0022 196.619 70.2442C196.619 70.5253 196.392 70.7576 196.114 70.76H176.718V70.7625Z" fill="#0E100F"/>
<path d="M308.636 57.4427C308.628 57.1982 308.365 57.0491 308.116 57.0491C307.865 57.0491 307.66 57.186 307.592 57.4573C306.965 59.9311 306.865 63.3313 305.36 65.3944C304.041 67.2033 300.81 67.7998 298.673 67.8731C293.861 68.0345 287.347 67.9465 282.455 67.9489C281.648 67.9489 280.682 67.9367 280.033 67.3965C279.407 66.8758 279.058 66.0349 279.058 65.2356V43.2502C279.058 41.6907 280.346 39.8769 282.004 39.8769L295.32 39.8427H299.551C300.271 39.8427 300.861 39.2584 300.861 38.5471C300.861 37.8333 300.271 37.2516 299.551 37.2516H293.469C293.466 37.2516 293.464 37.2516 293.461 37.2516L281.992 37.2271C280.636 37.2271 279.06 35.7702 279.06 33.8904C279.06 33.8904 279.08 6.89645 279.08 6.894C279.08 6.07756 279.433 5.32711 280.021 4.76489C280.916 3.90934 282.511 3.86778 283.677 3.83111C286.243 3.75045 291.271 3.68444 293.837 3.78467C296.025 3.87022 298.298 3.93622 300.439 4.42511C302.783 4.96044 304.231 6.43445 305.192 8.56845L305.592 9.66111C305.685 9.92756 305.843 10.238 306.238 10.1573C306.477 10.1084 306.638 9.88356 306.638 9.64156C306.638 9.64156 306.638 3.80911 306.636 1.922C306.636 1.54067 306.324 1.23267 305.938 1.23267H296.988C296.69 1.23755 296.391 1.24 296.088 1.24C296.088 1.24 284.621 1.24 284.621 1.23756H264.571C264.283 1.23756 264.049 1.46978 264.049 1.75333C264.049 1.83645 264.049 2.08822 264.561 2.27155L265.671 2.76778C269.485 4.33955 269.485 8.46334 269.485 11.778V60.222C269.485 64.2382 269.198 67.6873 265.671 69.2371L264.549 69.7407C264.21 69.8922 264.003 70.012 264.059 70.3518C264.098 70.5962 264.33 70.7698 264.579 70.7698C267.342 70.7698 269.907 70.7698 272.293 70.7722H298.093C298.264 70.7722 298.432 70.7722 298.6 70.7747C298.6 70.7747 305.663 70.7747 307.943 70.7722C308.331 70.7722 308.643 70.4593 308.643 70.0756L308.636 57.4427Z" fill="#0E100F"/>
<path d="M131.246 72.1069C111.636 72.1069 95.4369 56.1887 95.1345 36.6258C94.976 26.3713 98.5171 17.0262 105.109 10.3162C111.711 3.59644 120.976 -0.104446 131.2 -0.104446C137.504 -0.104446 143.584 1.32067 148.786 4.01444C149.996 4.64022 151.288 4.958 152.627 4.958C152.761 4.958 152.898 4.95556 153.032 4.94822C153.454 4.92867 153.878 4.87489 154.288 4.78934C154.693 4.70622 155.093 4.59134 155.481 4.44467C155.864 4.30045 156.239 4.12689 156.593 3.92645C156.946 3.726 157.288 3.49622 157.607 3.242C157.927 2.98778 158.229 2.70667 158.507 2.406C158.788 2.10289 159.044 1.77289 159.273 1.42823C159.388 1.25467 159.497 1.07378 159.6 0.887997L159.644 0.809781C159.688 0.734003 159.727 0.665557 159.756 0.594669C159.783 0.531113 159.81 0.457778 159.836 0.386889C159.88 0.274445 159.919 0.169335 159.946 0.120446C160.027 -0.0188876 160.17 -0.104446 160.329 -0.104446C160.5 -0.104446 160.646 -0.0213323 160.746 0.127779C160.836 0.264668 160.836 0.423553 160.834 0.575109C160.834 0.626442 160.834 0.672891 160.836 0.716891C160.839 0.760891 161.797 26.9091 161.797 26.9091C161.802 27.0289 161.807 27.1487 161.814 27.266L161.819 27.376C161.826 27.5153 161.822 27.6767 161.739 27.8087C161.646 27.9553 161.478 28.0482 161.305 28.0482C161.034 28.0482 160.924 27.8478 160.79 27.5398C154.778 13.6553 137.465 6.388 123.469 6.388C110.041 6.388 99.5219 16.4958 99.5219 29.4C99.5219 47.7284 118.013 66.404 136.163 66.404C143.779 66.404 150.981 59.5253 150.981 52.2482C150.981 39.0507 137.624 39.0507 128.783 39.0507H126.505C126.054 39.0507 125.688 38.684 125.688 38.2342C125.688 37.7845 126.054 37.4178 126.503 37.4178H166.353C166.621 37.4202 166.853 37.6573 166.853 37.9336C166.853 38.2391 166.589 38.3711 166.36 38.4518C166.143 38.5325 165.933 38.6449 165.731 38.7867C162.739 40.8816 160.729 46.2471 160.729 49.9456V70.892C160.739 71.0142 160.692 71.1487 160.619 71.244C160.522 71.3687 160.368 71.4444 160.209 71.4444C160.073 71.4444 159.956 71.3931 159.873 71.2929C159.819 71.2293 159.775 71.1462 159.741 71.0411C159.727 70.9995 159.717 70.958 159.707 70.914L159.697 70.87C159.685 70.8236 159.673 70.782 159.661 70.738L159.639 70.6622C159.578 70.4593 159.512 70.2564 159.444 70.0536C159.373 69.8482 159.297 69.6478 159.219 69.4449C159.139 69.242 159.056 69.044 158.966 68.846C158.875 68.648 158.78 68.45 158.685 68.2618C158.585 68.0687 158.483 67.878 158.375 67.6971C158.266 67.5113 158.154 67.3304 158.039 67.1593C157.919 66.9833 157.797 66.8122 157.673 66.6533C157.546 66.4896 157.415 66.3331 157.28 66.184C157.144 66.0349 157.002 65.8907 156.861 65.7587C156.715 65.6218 156.563 65.4971 156.415 65.3822C156.259 65.2649 156.1 65.1573 155.942 65.062C155.778 64.9642 155.61 64.8762 155.442 64.8029C155.271 64.7271 155.093 64.6611 154.915 64.6098C154.732 64.556 154.547 64.5169 154.361 64.49C154.171 64.4631 153.978 64.4484 153.783 64.4484C153.515 64.4484 153.244 64.4851 152.983 64.5609C152.31 64.754 151.73 65.1476 150.237 66.2304C147.254 68.3962 142.748 71.6693 132.697 72.0776C132.2 72.0971 131.724 72.1069 131.246 72.1069Z" fill="#0E100F"/>
</g>
<defs>
<clipPath id="clip0_326_1350">
<rect width="443" height="72" fill="white"/>
</clipPath>
</defs>
</svg>
